# xmcd
# Copyright (C) 1995-1998 Ti Kan
#
# Track frame offsets:
#       150
#       30360
#       58452
#       93049
#       119625
#       160728
#       185343
#       210783
#
# Disc length: 3192 seconds
#
# Revision: 0
# Processed by: cddbd v1.5.2PL0 Copyright (c) Steve Scherf et al.
# Submitted via: CD-Transfer v1.0
#
DISCID=5f0c7608
DTITLE=Ozric Tentacles - Ed Wynne
DYEAR=09
DGENRE=
TTITLE0=Magic Valey
TTITLE1=Oddweird
TTITLE2=Mooncalf
TTITLE3=Oolong Oolong
TTITLE4=Yumyum Tree, The
TTITLE5=Plant Music
TTITLE6=Nakuru
TTITLE7=San Pedro
EXTD=
EXTT0=
EXTT1=
EXTT2=
EXTT3=
EXTT4=
EXTT5=
EXTT6=
EXTT7=
PLAYORDER=
